<?xml version="1.0" encoding="utf-8"?>
<!-- Generator: Adobe Illustrator 23.1.1, SVG Export Plug-In . SVG Version: 6.00 Build 0)  -->
<svg version="1.1" id="pieces" xmlns="http://www.w3.org/2000/svg" xmlns:xlink="http://www.w3.org/1999/xlink" x="0px" y="0px"
	 viewBox="0 0 34 34" style="enable-background:new 0 0 34 34;" xml:space="preserve">
<style type="text/css">
	.st0{fill:#FFFFFF;}
</style>
<title>go</title>
<g>
	<path d="M17,32.1C8.7,32.1,1.9,25.3,1.9,17C1.9,8.7,8.7,1.9,17,1.9c8.3,0,15.1,6.8,15.1,15.1C32.1,25.3,25.3,32.1,17,32.1z"/>
	<path class="st0" d="M17,2.8c7.8,0,14.2,6.3,14.2,14.2S24.8,31.2,17,31.2S2.8,24.8,2.8,17S9.2,2.8,17,2.8 M17,1.1
		C8.2,1.1,1.1,8.2,1.1,17S8.2,32.9,17,32.9S32.9,25.8,32.9,17S25.8,1.1,17,1.1L17,1.1z"/>
</g>
<g>
	<path class="st0" d="M22.4,11.6L22.4,11.6c0.5,0.5,0.5,1.4,0,2l-8.8,8.8c-0.5,0.5-1.4,0.5-2,0l0,0c-0.5-0.5-0.5-1.4,0-2l8.8-8.8
		C21,11.1,21.8,11.1,22.4,11.6z"/>
	<path class="st0" d="M22.4,22.4L22.4,22.4c-0.5,0.5-1.4,0.5-2,0l-8.8-8.8c-0.5-0.5-0.5-1.4,0-2l0,0c0.5-0.5,1.4-0.5,2,0l8.8,8.8
		C22.9,21,22.9,21.8,22.4,22.4z"/>
</g>
</svg>
