<?xml version="1.0" encoding="utf-8"?>
<!-- Generator: Adobe Illustrator 23.1.1, SVG Export Plug-In . SVG Version: 6.00 Build 0)  -->
<svg version="1.1" xmlns="http://www.w3.org/2000/svg" xmlns:xlink="http://www.w3.org/1999/xlink" x="0px" y="0px"
	 viewBox="0 0 34 34" style="enable-background:new 0 0 34 34;" xml:space="preserve">
<style type="text/css">
	.st0{fill:#FFFFFF;}
</style>
<g id="Layer_1">
</g>
<g id="pieces">
	<title>go</title>
	<g>
		<path d="M17,32.1C8.7,32.1,1.9,25.3,1.9,17S8.7,1.9,17,1.9S32.1,8.7,32.1,17S25.3,32.1,17,32.1z"/>
		<path class="st0" d="M17,2.8c7.8,0,14.2,6.3,14.2,14.2S24.8,31.2,17,31.2S2.8,24.8,2.8,17S9.2,2.8,17,2.8 M17,1.1
			C8.2,1.1,1.1,8.2,1.1,17S8.2,32.9,17,32.9S32.9,25.8,32.9,17S25.8,1.1,17,1.1L17,1.1z"/>
	</g>
	<g>
		<path class="st0" d="M20.6,23L20.6,23c-0.6,0.6-1.7,0.6-2.3,0l-4.8-4.8c-0.6-0.6-0.6-1.7,0-2.3l0,0c0.6-0.6,1.7-0.6,2.3,0l4.8,4.8
			C21.2,21.3,21.2,22.3,20.6,23z"/>
		<path class="st0" d="M20.6,11L20.6,11c0.6,0.6,0.6,1.7,0,2.3l-4.8,4.8c-0.6,0.6-1.7,0.6-2.3,0l0,0c-0.6-0.6-0.6-1.7,0-2.3l4.8-4.8
			C18.9,10.4,19.9,10.4,20.6,11z"/>
	</g>
</g>
</svg>
