<?xml version="1.0" encoding="utf-8"?>
<!-- Generator: Adobe Illustrator 27.5.0, SVG Export Plug-In . SVG Version: 6.00 Build 0)  -->
<svg version="1.1" id="Layer_1" xmlns="http://www.w3.org/2000/svg" xmlns:xlink="http://www.w3.org/1999/xlink" x="0px" y="0px"
	 viewBox="0 0 1732.7 242.1" style="enable-background:new 0 0 1732.7 242.1;" xml:space="preserve">
<style type="text/css">
	.st0{fill:#FF3399;}
</style>
<g>
	<g id="g4377" transform="matrix(0.35277777,0,0,0.35277777,-4.401284,63.113654)">
		<path id="path4375" class="st0" d="M285.1,65.7v73.4h175.4c-5.2,41.2-19,71.3-40,92.5c-25.6,25.6-65.7,53.8-135.4,53.8
			c-108,0-192.5-87.2-192.5-195.3S177-105.1,285.1-105.1c58.3,0,100.8,22.9,132.3,52.5l51.5-51.5c-43.5-42.5-102-74.8-183.8-74.8
			C137-178.9,12.5-58.3,12.5,89.8S137,358.5,285.1,358.5c80,0,140.3-26.2,187.5-75.2c48.4-48.4,63.5-116.8,63.5-171.7
			c0-16.9-1.2-32.8-3.9-45.9H285.1z"/>
	</g>
	<path id="path4379" class="st0" d="M262.1,65.2c-33.8,0-61.3,25.6-61.3,61.1c0,35.2,27.6,61.2,61.3,61.2s61.4-25.9,61.4-61.2
		C323.5,90.9,295.9,65.2,262.1,65.2z M262.1,163.5c-18.5,0-34.5-15.3-34.5-37.1c0-22,16-37.1,34.5-37.1c18.6,0,34.5,15.1,34.5,37.1
		C296.6,148.2,280.7,163.5,262.1,163.5z"/>
	<path id="path4381" class="st0" d="M563,78.9h-1c-6-7.1-17.5-13.6-32.2-13.6c-30.5,0-57.2,26.6-57.2,61.1
		c0,34.3,26.7,61.2,57.2,61.2c14.7,0,26.3-6.5,32.2-13.9h1v8.5c0,23.4-12.5,35.9-32.6,35.9c-16.4,0-26.7-11.8-30.8-21.8l-23.4,9.7
		c6.7,16.2,24.5,36.1,54.2,36.1c31.5,0,58.1-18.6,58.1-63.7v-110H563L563,78.9z M532.2,163.5c-18.5,0-32.6-15.8-32.6-37.1
		c0-21.6,14.1-37.1,32.6-37.1c18.3,0,32.6,15.8,32.6,37.3C565,148,550.5,163.5,532.2,163.5z"/>
	<path id="path4383" class="st0" d="M399,65.2c-33.9,0-61.4,25.6-61.4,61.1c0,35.2,27.6,61.2,61.4,61.2c33.8,0,61.3-25.9,61.3-61.2
		C460.4,90.9,432.8,65.2,399,65.2z M399,163.5c-18.6,0-34.5-15.3-34.5-37.1c0-22,16-37.1,34.5-37.1c18.5,0,34.5,15.1,34.5,37.1
		C433.6,148.2,417.5,163.5,399,163.5z"/>
	<g id="g4387" transform="matrix(0.35277777,0,0,0.35277777,-4.401284,63.113654)">
		<path id="path4385" class="st0" d="M1740.4-171.7h75v524.6h-75V-171.7z"/>
	</g>
	<path id="path4389" class="st0" d="M717.7,163.5c-13.7,0-23.4-6.2-29.7-18.5l81.8-33.9l-2.7-6.9c-5-13.7-20.6-38.9-52.3-38.9
		c-31.5,0-57.7,24.7-57.7,61.1c0,34.3,25.9,61.2,60.7,61.2c28,0,44.2-17.2,50.9-27.1l-20.8-13.9
		C740.8,156.7,731.3,163.5,717.7,163.5L717.7,163.5z M715.7,88.1c10.8,0,20.2,5.6,23.2,13.5l-55.3,22.9
		C683.6,98.8,701.8,88.1,715.7,88.1L715.7,88.1z"/>
	<path id="path4286_00000131352552964382613710000006095237258968940479_" class="st0" d="M939.7,54.5V34.2h-114v20.3H872v145.6
		h21.4V54.5H939.7z"/>
	<path id="path4289_00000112622955090247171550000008299858147405735317_" class="st0" d="M969,137.6c0-8.6,3-16.2,9-22.8
		c5.8-6.4,12.7-9.7,20.8-9.9c5.6,0,9.9,0.7,12.6,1.9l6.3-20.8c-4.2-1.8-9.5-2.7-15.6-2.7c-6.6,0.2-13.2,2.3-19.7,6.3
		c-6.8,4.4-11.2,9.5-13.4,15.4h-0.8V86.6h-20.6v113.5H969V137.6z"/>
	<path id="path4292_00000178170862902371137680000008844522701494611587_" class="st0" d="M1056.1,149.9c5.6-4.2,12.9-6.3,21.7-6.3
		c11.7,0,20.9,2.7,27.7,8c0,9-3.5,16.7-10.4,23.3c-7.1,6.6-15.2,9.9-24.1,9.9c-6.2,0-11.7-1.8-16.4-5.5c-4.8-3.6-7.1-8.3-7.1-14
		C1047.3,159.1,1050.2,154,1056.1,149.9z M1028.9,105l18.9,12.1c6.7-10,16.2-15.1,28.2-15.1c7.7,0,14.5,2.6,20.6,7.7
		c5.8,5.3,8.8,11.7,8.8,18.9v4.9c-8.2-4.7-18.6-7.1-31.3-7.1c-15,0-26.9,3.5-35.6,10.4c-8.8,7-13.2,16.4-13.2,28.2
		c0,11.2,4.2,20.4,12.6,27.7c8.4,7.5,18.8,11.2,31.3,11.2c14.6,0,26.4-6.4,35.4-19.5h0.8v15.6h20.3v-69.9c0-14.6-4.6-26.2-13.7-34.8
		c-9.2-8.2-21.5-12.3-37-12.3C1054.7,83,1039.4,90.4,1028.9,105z"/>
	<path id="path4292_00000010270832808255185080000001478236224654827182_" class="st0" d="M1453.6,149.9c5.6-4.2,12.9-6.3,21.7-6.3
		c11.7,0,20.9,2.7,27.7,8c0,9-3.5,16.7-10.4,23.3c-7.1,6.6-15.2,9.9-24.1,9.9c-6.2,0-11.7-1.8-16.4-5.5c-4.8-3.6-7.1-8.3-7.1-14
		C1444.9,159.1,1447.7,154,1453.6,149.9z M1426.5,105l18.9,12.1c6.7-10,16.2-15.1,28.2-15.1c7.7,0,14.5,2.6,20.6,7.7
		c5.8,5.3,8.8,11.7,8.8,18.9v4.9c-8.2-4.7-18.6-7.1-31.3-7.1c-15,0-26.9,3.5-35.6,10.4c-8.8,7-13.2,16.4-13.2,28.2
		c0,11.2,4.2,20.4,12.6,27.7c8.4,7.5,18.8,11.2,31.3,11.2c14.6,0,26.4-6.4,35.4-19.5h0.8v15.6h20.3v-69.9c0-14.6-4.6-26.2-13.7-34.8
		c-9.2-8.2-21.5-12.3-37-12.3C1452.3,83,1436.9,90.4,1426.5,105z"/>
	<path id="path4295_00000176754016668162064220000004351386234897448627_" class="st0" d="M1149.8,200.1h21.4v-62.8
		c0-9.5,2.8-17.7,8.5-24.7c5.6-6.7,12.7-10.1,21.4-10.1c18.1,0,27.4,9.3,28,27.7v69.9h21.4v-71.3c0-14.6-3.8-25.9-11.2-34
		C1231.7,87,1221,83,1207.1,83c-7.3,0-14.4,1.9-21.1,5.5c-6.6,3.7-11.5,8.4-14.8,14h-0.8V86.6h-20.6V200.1z"/>
	<path id="path4298_00000027576224324617581950000016285690043068486324_" class="st0" d="M1328.6,134.6l-17.3-4.4
		c-12.3-2.7-18.4-7.4-18.4-14c0-4,2.3-7.4,6.9-10.1c4.4-2.7,9.3-4.1,14.8-4.1c6,0,11.5,1.3,16.4,3.8c4.7,2.7,8.2,6.6,10.4,11.5
		l18.9-8c-3.2-8-8.8-14.4-17-19.2c-8.1-4.7-17.1-7.1-27.1-7.1c-13.2,0-24,3.2-32.4,9.3c-8.4,6.2-12.6,14.5-12.6,24.9
		c0,15.8,11,26.3,33.2,31.8l19.5,4.9c11.1,3.5,16.7,8.8,16.7,15.9c0,4-2.3,7.5-6.9,10.4c-4.8,2.9-10.4,4.4-17,4.4
		c-6.4,0-12.3-1.8-17.5-5.5c-5.3-3.8-9.3-9.2-12.1-16.2l-19.2,8.2c3.6,9.7,9.9,17.5,18.6,23.6c8.6,6,18.6,9,30.2,9
		c13,0,23.9-3.5,32.6-10.4c8.6-6.7,12.9-15.1,12.9-24.9C1362.3,151.6,1351,140.3,1328.6,134.6z"/>
	<path id="path4301_00000001645291940167701770000001936933377997548712_" class="st0" d="M1380.7,34.2v165.9h21.4V34.2H1380.7z"/>
	<path id="path4304_00000114766094113686327010000002788855913369051305_" class="st0" d="M1610.4,199l-6.6-18.9
		c-1.5,0.5-3,1-4.7,1.4c-1.6,0.4-3.3,0.5-4.9,0.5c-3.7,0-7-1.4-9.9-4.1c-2.9-2.5-4.4-7.7-4.4-15.4v-56.5h27.7V86.6H1580V51.8h-21.4
		v34.8h-20v19.5h20v63.6c0.1,10.1,3.3,18,9.3,23.9c6.2,5.7,13.8,8.5,23,8.5C1598.5,202,1605,201,1610.4,199z"/>
	<path id="path4307_00000031173414820603053760000000126081702125686184_" class="st0" d="M1709.7,195.7c8.9-5.3,16-12.7,21.4-22.5
		l-19.2-9.3c-7.7,13.7-18.4,20.6-32.1,20.6c-9.9,0-18.3-3.4-25.2-10.1c-7.3-6.9-11.1-16-11.2-27.1h89.1l0.3-2.2
		c0-19.7-4.9-35-14.8-45.8c-10.1-10.8-23.5-16.2-40.3-16.2c-16.4,0-29.9,5.7-40.3,17c-10.4,11.5-15.6,26-15.6,43.3
		c0,17.5,5.3,32,16.2,43.3c10.8,11.5,24.5,17.3,41.1,17.3C1690.3,203.9,1700.5,201.2,1709.7,195.7z M1656.5,109.6
		c5.6-4.7,12.6-7.1,20.8-7.1c9.5,0,17.3,2.6,23.3,7.7c5.6,5.1,8.8,11.7,9.6,19.5H1645C1646.7,121.4,1650.6,114.8,1656.5,109.6z"/>
</g>
<g>
</g>
<g>
</g>
<g>
</g>
<g>
</g>
<g>
</g>
<g>
</g>
<g>
</g>
<g>
</g>
<g>
</g>
<g>
</g>
<g>
</g>
<g>
</g>
<g>
</g>
<g>
</g>
<g>
</g>
</svg>
